<svg width="146" height="50" viewBox="0 0 146 50" fill="none" xmlns="http://www.w3.org/2000/svg">
<path fill-rule="evenodd" clip-rule="evenodd" d="M85.2317 38.8045H86.8059V24.3741H89.5504C90.8738 24.3741 91.6679 24.4866 92.6153 24.9789C93.6322 25.4993 94.3288 26.7792 94.3288 28.0309C94.3288 29.4374 93.4511 30.9001 91.7376 31.3924C91.041 31.6034 90.3584 31.6315 88.3662 31.6315L93.7019 38.8186H95.6801L91.25 32.8973C94.287 32.7004 95.9309 30.3657 95.9309 28.0731C95.9309 26.1181 94.8861 24.3882 93.1307 23.5443C92.4063 23.1927 91.3614 22.9395 89.2578 22.9395H85.2595V38.8045H85.2317ZM78.9765 38.8045H80.5508V22.9395H78.9765V38.8045ZM66.9399 38.8045H68.5141V31.5612H74.6578V30.1266H68.5141V24.3741H74.8946V22.9395H66.9538V38.8045H66.9399ZM55.9899 24.7398L59.013 32.0253H52.9111L55.9899 24.7398ZM48.3973 38.8045H50.0273L52.326 33.474H59.6259L61.8968 38.8045H63.6242L56.8676 22.9395H55.0983L48.3973 38.8045ZM36.4303 34.3741C36.5 37.8762 39.2445 39.0858 41.2784 39.0858C44.0647 39.0858 46.0151 36.8776 46.0151 34.4304C46.0151 33.9662 46.029 30.8861 42.17 29.8453C40.1082 29.2405 38.4364 28.7904 38.4364 26.8636C38.4364 25.4852 39.4813 24.0928 41.2784 24.0928C42.7691 24.0928 44.0647 25.3587 44.0647 26.962H45.6389C45.6389 24.6414 43.8557 22.6442 41.2924 22.6442C38.8126 22.6442 36.8761 24.4444 36.8761 26.9058C36.8761 30.0563 39.5231 30.661 40.958 31.083C42.0168 31.4065 44.4687 32.0253 44.4687 34.4726C44.4687 36.3291 42.9641 37.6231 41.3063 37.6231C39.3698 37.6231 38.116 36.3291 38.0324 34.346H36.4303V34.3741ZM18.8073 38.8045H26.8735V37.3699H20.3815V22.9395H18.8073V38.8045ZM7.60649 24.7398L10.6296 32.0253H4.52767L7.60649 24.7398ZM0 38.8045H1.64389L3.92863 33.474H11.2286L13.4994 38.8045H15.2269L8.47023 22.9395H6.71489L0 38.8045Z" fill="#C4A47E"/>
<path d="M125.493 10.1266L125.995 9.62024L131.86 15.5415H140.149V23.8959L146 29.8172L140.149 35.7384V44.0928H131.86L125.995 50L120.144 44.0928H111.854V35.7243L106.003 29.8031L111.854 23.8818V15.5274H120.144L125.493 10.1266ZM120.436 16.9761H113.289V24.4866L108.023 29.8031L113.289 35.1195V42.6301H120.729L125.995 47.9465L131.261 42.6301H138.714V35.1195L143.98 29.8031L138.714 24.4866V16.9761H131.261L125.995 11.6596L120.729 16.9761H120.436ZM128.865 25.8931C128.865 25.8931 128.962 21.8284 127.82 20.8861C126.663 19.9297 124.072 19.8734 123.849 22.5738C123.668 24.9789 126.51 25.8228 127.513 26.3713C128.516 26.9058 132.055 28.6779 132.919 31.6174C133.782 34.557 131.4 38.045 129.296 38.8326C127.193 39.6343 123.403 40.9283 119.976 37.6653C117.232 35.0352 118.541 29.0717 122.763 28.8467C125.187 28.7201 127.276 29.6062 127.235 32.0394C127.179 34.557 124.044 34.0928 123.961 34.0647C123.933 33.6849 123.933 33.4599 123.933 33.4599C123.933 33.4599 125.786 33.038 125.66 31.7159C125.563 30.5063 124.894 29.4233 122.846 29.6202C120.812 29.8172 119.349 32.2925 120.144 35.0773C120.924 37.7918 124.281 39.5077 128.084 38.2138C128.084 38.2138 131.247 36.9901 131.191 33.9381C131.135 30.872 127.75 29.578 126.023 28.5091C124.295 27.4402 122.164 26.1744 122.275 23.699C122.386 21.2096 124.03 19.353 126.218 19.3952C128.419 19.4233 128.739 20.0844 128.739 20.0844L128.865 19.775H129.659V25.9072H128.865V25.8931Z" fill="#793D58"/>
<path d="M128.865 25.8931C128.865 25.8931 128.962 21.8284 127.82 20.8861C126.663 19.9297 124.072 19.8734 123.849 22.5738C123.668 24.9789 126.51 25.8228 127.513 26.3713C128.516 26.9058 132.055 28.6779 132.919 31.6174C133.782 34.557 131.4 38.045 129.296 38.8326C127.193 39.6343 123.403 40.9283 119.976 37.6653C117.232 35.0352 118.541 29.0717 122.763 28.8467C125.187 28.7201 127.276 29.6062 127.235 32.0394C127.179 34.557 124.044 34.0928 123.961 34.0647C123.933 33.6849 123.933 33.4599 123.933 33.4599C123.933 33.4599 125.786 33.038 125.66 31.7159C125.563 30.5063 124.894 29.4233 122.846 29.6203C120.812 29.8172 119.349 32.2925 120.144 35.0774C120.924 37.7918 124.281 39.5077 128.084 38.2138C128.084 38.2138 131.247 36.9902 131.191 33.9381C131.135 30.872 127.75 29.5781 126.023 28.5091C124.295 27.4402 122.164 26.1744 122.275 23.699C122.386 21.2096 124.03 19.353 126.218 19.3952C128.419 19.4233 128.739 20.0844 128.739 20.0844L128.865 19.775H129.659V25.9072H128.865V25.8931Z" fill="white"/>
<path fill-rule="evenodd" clip-rule="evenodd" d="M125.493 10.1266L120.144 15.5274H111.854V23.8959L106.003 29.8031L111.854 35.7243V44.0788H120.144L125.995 49.986L131.86 44.0788H140.149V35.7243L146 29.8031L140.149 23.8959V15.5274H131.86L125.995 9.6062L125.493 10.1266ZM120.436 16.9761H120.729L125.995 11.6596L131.261 16.9761H138.714V24.4867L143.98 29.8031L138.714 35.1196V42.6442H131.261L125.995 47.9606L120.729 42.6442H113.289V35.1196L108.023 29.8031L113.289 24.4867V16.9761H120.436Z" fill="#C4A47E"/>
<path d="M95.903 15.4712H94.3706V0H95.903V15.4712ZM52.7857 17.9325C52.8692 17.7356 53.0086 17.5668 53.2036 17.4824C53.2733 17.4402 53.3708 17.4262 53.4683 17.4262C53.942 17.4262 54.2345 17.8481 54.2345 18.2841C54.2345 18.4107 54.2206 18.5091 54.1788 18.6217C54.0673 18.917 53.8026 19.128 53.4822 19.128C53.0364 19.128 52.7299 18.706 52.7299 18.2841C52.7299 18.1575 52.7578 18.045 52.7857 17.9325ZM51.4622 19.0858C51.1557 18.9451 50.9885 18.6217 50.9885 18.2982C50.9885 17.8622 51.2671 17.4402 51.7408 17.4402C51.8523 17.4402 51.9358 17.4543 52.0194 17.4965C52.3399 17.6371 52.507 17.9466 52.507 18.2982C52.507 18.7201 52.2005 19.142 51.7408 19.142C51.6294 19.142 51.5458 19.128 51.4622 19.0858ZM58.7622 4.68354C58.6089 4.52883 58.5254 4.33193 58.5254 4.05063C58.5254 3.92405 58.5393 3.81153 58.595 3.71308C58.7065 3.41772 58.9851 3.20675 59.3055 3.20675C59.6259 3.20675 59.8767 3.41772 59.9881 3.71308C60.0299 3.8256 60.0439 3.93811 60.0439 4.05063C60.0439 4.19128 60.016 4.3038 59.9881 4.40225C59.8767 4.69761 59.6259 4.90858 59.3055 4.90858C59.0687 4.92264 58.9015 4.85232 58.7622 4.68354ZM61.7435 8.10126C62.1614 8.55133 62.3425 9.05766 62.3425 9.63432L62.3565 14.135C62.3565 14.135 65.1009 14.2475 65.4074 14.0084C65.7557 13.7131 65.8393 13.5724 65.8393 13.1083V7.46835H67.3717V13.0942C67.3717 13.9662 67.7618 14.135 68.6813 14.135C69.6007 14.135 69.9629 13.9803 69.9629 13.1224V7.46835H71.5093V13.0942C71.5093 13.9662 71.8994 14.135 72.8189 14.135C73.7383 14.135 74.1005 13.9522 74.1005 13.0942V7.46835H75.633V13.1224C75.633 13.5865 75.8141 13.9522 76.2738 14.1491C76.5385 14.3601 90.9574 14.1772 90.9853 14.1491C91.4171 13.9381 91.4171 13.5865 91.4171 13.1224V0H92.9635V13.3193C92.9635 13.8959 92.7685 14.3882 92.3505 14.8242C91.9326 15.2461 91.4589 15.4571 90.8738 15.4712H77.04C76.232 15.4571 75.7584 15.1055 75.229 14.6132C74.6996 15.1055 74.3095 15.4712 73.5154 15.4712H72.8049C72.2337 15.4712 71.7462 15.2602 71.3143 14.8242C71.0496 14.557 70.8963 14.1772 70.7152 13.8537C70.1998 14.7398 69.8376 15.4712 68.5977 15.4712H67.8593C67.0513 15.4712 66.6891 15.1195 66.1597 14.5992C65.6303 15.1195 65.2402 15.4712 64.4462 15.4712H64.2372H63.9586H55.6416H55.3351H54.332C53.524 15.4571 53.1479 15.1055 52.5906 14.5992C52.2981 14.8945 52.0473 15.1758 51.6572 15.3305C51.4204 15.429 51.1836 15.4712 50.891 15.4712H49.9437H49.679H48.1187V17.0745C48.1187 17.6653 47.9097 18.1716 47.4918 18.5935C47.0599 19.0295 46.5723 19.2264 46.0011 19.2264H44.9284V18.4388H45.2767C46.1962 18.4388 46.5584 17.7215 46.5584 16.8495V7.46835H48.0908L48.1047 14.1491C48.1047 14.1491 50.7796 14.2757 51.0582 14.0506C51.3925 13.7553 51.4204 13.5865 51.4204 13.1364V7.46835H52.9668V13.1364C52.9668 14.2616 53.5658 14.1491 54.6385 14.1491H56.5889L56.575 9.63432C56.575 9.07173 56.77 8.57946 57.2019 8.10126C57.6337 7.66526 58.1213 7.46835 58.6925 7.46835H60.225C60.5315 7.46835 60.7962 7.52461 61.033 7.62306C61.2977 7.73558 61.5206 7.89029 61.7435 8.10126ZM59.4727 8.25598C58.5254 8.25598 58.1353 8.95921 58.1353 9.85935V14.135H60.8101V9.85935C60.8101 8.95921 60.4061 8.25598 59.4727 8.25598Z" fill="white"/>
</svg>
